{
    "accessors" : [
        {
            "bufferView" : 0,
            "componentType" : 5121,
            "count" : 1098,
            "max" : [
                209
            ],
            "min" : [
                0
            ],
            "type" : "SCALAR"
        },
        {
            "bufferView" : 1,
            "componentType" : 5126,
            "count" : 210,
            "max" : [
                0.4951517581939697,
                0.8095214366912842,
                0.5010131001472473
            ],
            "min" : [
                -0.4962961971759796,
                -0.007993310689926147,
                -0.49043482542037964
            ],
            "type" : "VEC3"
        },
        {
            "bufferView" : 2,
            "componentType" : 5126,
            "count" : 210,
            "max" : [
                0.9802545309066772,
                0.999969482421875,
                0.9962157011032104
            ],
            "min" : [
                -0.9802545309066772,
                -1.0,
                -0.9207434058189392
            ],
            "type" : "VEC3"
        },
        {
            "bufferView" : 3,
            "componentType" : 5126,
            "count" : 210,
            "max" : [
                0.9999771118164062,
                0.9847150444984436,
                0.95742267370224,
                1.0
            ],
            "min" : [
                -0.8887436389923096,
                -0.9562786817550659,
                -0.9994566440582275,
                -1.0
            ],
            "type" : "VEC4"
        },
        {
            "bufferView" : 4,
            "componentType" : 5126,
            "count" : 210,
            "max" : [
                0.9862239956855774,
                0.9939360339194536
            ],
            "min" : [
                0.015654943883419037,
                0.006754457950592041
            ],
            "type" : "VEC2"
        },
        {
            "bufferView" : 5,
            "componentType" : 5123,
            "count" : 210,
            "max" : [
                1,
                1,
                0,
                0
            ],
            "min" : [
                0,
                0,
                0,
                0
            ],
            "type" : "VEC4"
        },
        {
            "bufferView" : 6,
            "componentType" : 5126,
            "count" : 210,
            "max" : [
                1.0,
                1.0,
                0.0,
                0.0
            ],
            "min" : [
                1.0,
                0.0,
                0.0,
                0.0
            ],
            "type" : "VEC4"
        },
        {
            "bufferView" : 7,
            "componentType" : 5126,
            "count" : 2,
            "max" : [
                1.0,
                1.4210852004696573e-13,
                2.3841860752327193e-07,
                0.0,
                -3.797677978838697e-14,
                1.0000001192092896,
                4.0076873375483046e-08,
                0.0,
                4.5533631661161256e-14,
                1.0,
                1.0000001192092896,
                0.0,
                5.166738453804478e-16,
                0.0,
                0.0,
                1.0
            ],
            "min" : [
                1.0,
                4.7309988500561506e-14,
                -3.8941436741879443e-07,
                0.0,
                -3.8941436741879443e-07,
                2.384185791015625e-07,
                -1.0,
                0.0,
                -2.3841850804728892e-07,
                1.1920916165308881e-07,
                2.384185791015625e-07,
                0.0,
                0.0,
                -0.3492276668548584,
                -2.0140555889724965e-08,
                1.0
            ],
            "type" : "MAT4"
        },
        {
            "bufferView" : 8,
            "componentType" : 5126,
            "count" : 60,
            "max" : [
                2.4583333333333335
            ],
            "min" : [
                0.0
            ],
            "type" : "SCALAR"
        },
        {
            "bufferView" : 9,
            "componentType" : 5126,
            "count" : 60,
            "max" : [
                2.2436325173902155e-15,
                1.1306781289022183e-08,
                0.04816439375281334
            ],
            "min" : [
                -2.2281415553343552e-15,
                -1.122871484682264e-08,
                0.0
            ],
            "type" : "VEC3"
        },
        {
            "bufferView" : 10,
            "componentType" : 5126,
            "count" : 60,
            "max" : [
                2.4583333333333335
            ],
            "min" : [
                0.0
            ],
            "type" : "SCALAR"
        },
        {
            "bufferView" : 11,
            "componentType" : 5126,
            "count" : 60,
            "max" : [
                0.7071067094802856,
                -1.376787679419067e-07,
                -1.376787679419067e-07,
                0.70710688829422
            ],
            "min" : [
                0.7071067094802856,
                -1.376787679419067e-07,
                -1.376787679419067e-07,
                0.70710688829422
            ],
            "type" : "VEC4"
        },
        {
            "bufferView" : 12,
            "componentType" : 5126,
            "count" : 60,
            "max" : [
                2.4583333333333335
            ],
            "min" : [
                0.0
            ],
            "type" : "SCALAR"
        },
        {
            "bufferView" : 13,
            "componentType" : 5126,
            "count" : 60,
            "max" : [
                1.0,
                1.0,
                1.0
            ],
            "min" : [
                1.0,
                1.0,
                1.0
            ],
            "type" : "VEC3"
        },
        {
            "bufferView" : 14,
            "componentType" : 5126,
            "count" : 60,
            "max" : [
                2.4583333333333335
            ],
            "min" : [
                0.0
            ],
            "type" : "SCALAR"
        },
        {
            "bufferView" : 15,
            "componentType" : 5126,
            "count" : 60,
            "max" : [
                -9.254667787672588e-08,
                0.06920252740383148,
                -0.349227637052536
            ],
            "min" : [
                -1.359942558565308e-07,
                8.940696716308594e-08,
                -0.3492276668548584
            ],
            "type" : "VEC3"
        },
        {
            "bufferView" : 16,
            "componentType" : 5126,
            "count" : 60,
            "max" : [
                2.4583333333333335
            ],
            "min" : [
                0.0
            ],
            "type" : "SCALAR"
        },
        {
            "bufferView" : 17,
            "componentType" : 5126,
            "count" : 60,
            "max" : [
                -0.7071067094802856,
                2.219724422047875e-07,
                5.338509012631221e-08,
                0.70710688829422
            ],
            "min" : [
                -0.7071067094802856,
                2.219724422047875e-07,
                5.3385061704602776e-08,
                0.70710688829422
            ],
            "type" : "VEC4"
        },
        {
            "bufferView" : 18,
            "componentType" : 5126,
            "count" : 60,
            "max" : [
                2.4583333333333335
            ],
            "min" : [
                0.0
            ],
            "type" : "SCALAR"
        },
        {
            "bufferView" : 19,
            "componentType" : 5126,
            "count" : 60,
            "max" : [
                1.0,
                0.9999999403953552,
                0.9999999403953552
            ],
            "min" : [
                1.0,
                0.8447632193565369,
                0.9999999403953552
            ],
            "type" : "VEC3"
        },
        {
            "bufferView" : 20,
            "componentType" : 5126,
            "count" : 60,
            "max" : [
                2.4583333333333335
            ],
            "min" : [
                0.0
            ],
            "type" : "SCALAR"
        },
        {
            "bufferView" : 21,
            "componentType" : 5126,
            "count" : 60,
            "max" : [
                0.7071067094802856,
                0.7071044445037842,
                0.7068977952003479,
                1.0
            ],
            "min" : [
                -0.007510662078857422,
                -0.706898033618927,
                -0.7071043252944946,
                -0.007510388735681772
            ],
            "type" : "VEC4"
        },
        {
            "bufferView" : 22,
            "componentType" : 5126,
            "count" : 60,
            "max" : [
                2.4583333333333335
            ],
            "min" : [
                0.0
            ],
            "type" : "SCALAR"
        },
        {
            "bufferView" : 23,
            "componentType" : 5126,
            "count" : 60,
            "max" : [
                -0.7071067094802856,
                2.219724422047875e-07,
                1.1699810897880525e-07,
                0.70710688829422
            ],
            "min" : [
                -0.8870108127593994,
                1.4495041966711142e-07,
                5.338508302088485e-08,
                0.46174874901771545
            ],
            "type" : "VEC4"
        }
    ],
    "animations" : [
        {
            "channels" : [
                {
                    "sampler" : 0,
                    "target" : {
                        "node" : 2,
                        "path" : "translation"
                    }
                },
                {
                    "sampler" : 1,
                    "target" : {
                        "node" : 2,
                        "path" : "rotation"
                    }
                },
                {
                    "sampler" : 2,
                    "target" : {
                        "node" : 2,
                        "path" : "scale"
                    }
                },
                {
                    "sampler" : 3,
                    "target" : {
                        "node" : 3,
                        "path" : "translation"
                    }
                },
                {
                    "sampler" : 4,
                    "target" : {
                        "node" : 3,
                        "path" : "rotation"
                    }
                },
                {
                    "sampler" : 5,
                    "target" : {
                        "node" : 3,
                        "path" : "scale"
                    }
                }
            ],
            "name" : "Walking",
            "samplers" : [
                {
                    "input" : 8,
                    "interpolation" : "LINEAR",
                    "output" : 9
                },
                {
                    "input" : 10,
                    "interpolation" : "LINEAR",
                    "output" : 11
                },
                {
                    "input" : 12,
                    "interpolation" : "LINEAR",
                    "output" : 13
                },
                {
                    "input" : 14,
                    "interpolation" : "LINEAR",
                    "output" : 15
                },
                {
                    "input" : 16,
                    "interpolation" : "LINEAR",
                    "output" : 17
                },
                {
                    "input" : 18,
                    "interpolation" : "LINEAR",
                    "output" : 19
                }
            ]
        },
        {
            "channels" : [
                {
                    "sampler" : 0,
                    "target" : {
                        "node" : 2,
                        "path" : "rotation"
                    }
                },
                {
                    "sampler" : 1,
                    "target" : {
                        "node" : 3,
                        "path" : "rotation"
                    }
                }
            ],
            "name" : "Dying",
            "samplers" : [
                {
                    "input" : 20,
                    "interpolation" : "LINEAR",
                    "output" : 21
                },
                {
                    "input" : 22,
                    "interpolation" : "LINEAR",
                    "output" : 23
                }
            ]
        }
    ],
    "asset" : {
        "generator" : "Khronos Blender glTF 2.0 exporter",
        "version" : "2.0"
    },
    "bufferViews" : [
        {
            "buffer" : 0,
            "byteLength" : 1098,
            "byteOffset" : 0,
            "target" : 34963
        },
        {
            "buffer" : 0,
            "byteLength" : 2520,
            "byteOffset" : 1100,
            "target" : 34962
        },
        {
            "buffer" : 0,
            "byteLength" : 2520,
            "byteOffset" : 3620,
            "target" : 34962
        },
        {
            "buffer" : 0,
            "byteLength" : 3360,
            "byteOffset" : 6140,
            "target" : 34962
        },
        {
            "buffer" : 0,
            "byteLength" : 1680,
            "byteOffset" : 9500,
            "target" : 34962
        },
        {
            "buffer" : 0,
            "byteLength" : 1680,
            "byteOffset" : 11180,
            "target" : 34962
        },
        {
            "buffer" : 0,
            "byteLength" : 3360,
            "byteOffset" : 12860,
            "target" : 34962
        },
        {
            "buffer" : 0,
            "byteLength" : 128,
            "byteOffset" : 16220
        },
        {
            "buffer" : 0,
            "byteLength" : 240,
            "byteOffset" : 16348
        },
        {
            "buffer" : 0,
            "byteLength" : 720,
            "byteOffset" : 16588
        },
        {
            "buffer" : 0,
            "byteLength" : 240,
            "byteOffset" : 17308
        },
        {
            "buffer" : 0,
            "byteLength" : 960,
            "byteOffset" : 17548
        },
        {
            "buffer" : 0,
            "byteLength" : 240,
            "byteOffset" : 18508
        },
        {
            "buffer" : 0,
            "byteLength" : 720,
            "byteOffset" : 18748
        },
        {
            "buffer" : 0,
            "byteLength" : 240,
            "byteOffset" : 19468
        },
        {
            "buffer" : 0,
            "byteLength" : 720,
            "byteOffset" : 19708
        },
        {
            "buffer" : 0,
            "byteLength" : 240,
            "byteOffset" : 20428
        },
        {
            "buffer" : 0,
            "byteLength" : 960,
            "byteOffset" : 20668
        },
        {
            "buffer" : 0,
            "byteLength" : 240,
            "byteOffset" : 21628
        },
        {
            "buffer" : 0,
            "byteLength" : 720,
            "byteOffset" : 21868
        },
        {
            "buffer" : 0,
            "byteLength" : 240,
            "byteOffset" : 22588
        },
        {
            "buffer" : 0,
            "byteLength" : 960,
            "byteOffset" : 22828
        },
        {
            "buffer" : 0,
            "byteLength" : 240,
            "byteOffset" : 23788
        },
        {
            "buffer" : 0,
            "byteLength" : 960,
            "byteOffset" : 24028
        }
    ],
    "buffers" : [
        {
            "byteLength" : 24988,
            "uri" : "BlobMonster.bin"
        }
    ],
    "images" : [
        {
            "mimeType" : "image/png",
            "name" : "BlobMonsterTexture",
            "uri" : "data:image/png;base64,"
        }
    ],
    "materials" : [
        {
            "name" : "Blobby",
            "pbrMetallicRoughness" : {
                "baseColorFactor" : [
                    0.800000011920929,
                    0.800000011920929,
                    0.800000011920929,
                    1.0
                ],
                "baseColorTexture" : {
                    "index" : 0
                },
                "metallicFactor" : 0.0
            }
        }
    ],
    "meshes" : [
        {
            "name" : "BlobMonster",
            "primitives" : [
                {
                    "attributes" : {
                        "JOINTS_0" : 5,
                        "NORMAL" : 2,
                        "POSITION" : 1,
                        "TANGENT" : 3,
                        "TEXCOORD_0" : 4,
                        "WEIGHTS_0" : 6
                    },
                    "indices" : 0,
                    "material" : 0
                }
            ]
        }
    ],
    "nodes" : [
        {
            "mesh" : 0,
            "name" : "BlobMonster",
            "skin" : 0
        },
        {
            "children" : [
                0,
                2
            ],
            "name" : "BlobMonsterRig",
            "rotation" : [
                0.0,
                1.0,
                -0.0,
                -7.549790126404332e-08
            ]
        },
        {
            "children" : [
                3
            ],
            "name" : "BlobMonsterRig_Body",
            "rotation" : [
                0.7071067094802856,
                -1.376787679419067e-07,
                -1.376787679419067e-07,
                0.70710688829422
            ]
        },
        {
            "name" : "BlobMonsterRig_Face",
            "rotation" : [
                -0.7071067094802856,
                2.219724422047875e-07,
                5.338508302088485e-08,
                0.70710688829422
            ],
            "scale" : [
                1.0,
                0.9999999403953552,
                0.9999999403953552
            ],
            "translation" : [
                -1.359942558565308e-07,
                8.940696716308594e-08,
                -0.3492276668548584
            ]
        }
    ],
    "samplers" : [
        {}
    ],
    "scene" : 0,
    "scenes" : [
        {
            "name" : "Scene",
            "nodes" : [
                1
            ]
        }
    ],
    "skins" : [
        {
            "inverseBindMatrices" : 7,
            "joints" : [
                2,
                3
            ],
            "skeleton" : 1
        }
    ],
    "textures" : [
        {
            "sampler" : 0,
            "source" : 0
        }
    ]
}
