{
    "accessors" : [
        {
            "bufferView" : 0,
            "componentType" : 5123,
            "count" : 1704,
            "max" : [
                401
            ],
            "min" : [
                0
            ],
            "type" : "SCALAR"
        },
        {
            "bufferView" : 1,
            "componentType" : 5126,
            "count" : 402,
            "max" : [
                1.0000001192092896,
                0.20000872015953064,
                1.0
            ],
            "min" : [
                -1.0,
                -0.008977547287940979,
                -1.0
            ],
            "type" : "VEC3"
        },
        {
            "bufferView" : 2,
            "componentType" : 5126,
            "count" : 402,
            "max" : [
                0.8755760192871094,
                1.0,
                0.8755760192871094
            ],
            "min" : [
                -0.8755760192871094,
                -0.8755760192871094,
                -0.8755760192871094
            ],
            "type" : "VEC3"
        },
        {
            "bufferView" : 3,
            "componentType" : 5126,
            "count" : 402,
            "max" : [
                1.0,
                0.7180704474449158,
                0.9404035806655884,
                1.0
            ],
            "min" : [
                -0.9398611187934875,
                -0.7180708646774292,
                -0.9398611187934875,
                1.0
            ],
            "type" : "VEC4"
        },
        {
            "bufferView" : 4,
            "componentType" : 5126,
            "count" : 402,
            "max" : [
                0.9857011437416077,
                0.9901339374482632
            ],
            "min" : [
                0.012815631926059723,
                0.026420295238494873
            ],
            "type" : "VEC2"
        },
        {
            "bufferView" : 5,
            "componentType" : 5123,
            "count" : 402,
            "max" : [
                1,
                0,
                0,
                0
            ],
            "min" : [
                0,
                0,
                0,
                0
            ],
            "type" : "VEC4"
        },
        {
            "bufferView" : 6,
            "componentType" : 5126,
            "count" : 402,
            "max" : [
                1.0,
                0.0,
                0.0,
                0.0
            ],
            "min" : [
                1.0,
                0.0,
                0.0,
                0.0
            ],
            "type" : "VEC4"
        },
        {
            "bufferView" : 7,
            "componentType" : 5126,
            "count" : 2,
            "max" : [
                1.0,
                1.2511623026512098e-07,
                0.8541354537010193,
                0.0,
                1.509958451606508e-07,
                1.0,
                2.687176561266824e-07,
                0.0,
                0.8541354537010193,
                -2.5296060357504757e-07,
                1.0,
                0.0,
                7.390364158859665e-15,
                0.0,
                1.2137994839648333e-14,
                1.0
            ],
            "min" : [
                0.5200506448745728,
                -1.251162586868304e-07,
                -3.362094673844962e-14,
                0.0,
                -1.509958451606508e-07,
                -1.0,
                2.687176561266824e-07,
                0.0,
                -4.295449765193485e-14,
                -2.8447470867831726e-07,
                -0.5200506448745728,
                0.0,
                0.0,
                -6.523387033076126e-21,
                0.0,
                1.0
            ],
            "type" : "MAT4"
        },
        {
            "bufferView" : 8,
            "componentType" : 5126,
            "count" : 60,
            "max" : [
                2.4583333333333335
            ],
            "min" : [
                0.0
            ],
            "type" : "SCALAR"
        },
        {
            "bufferView" : 9,
            "componentType" : 5126,
            "count" : 60,
            "max" : [
                0.0,
                0.0,
                0.0
            ],
            "min" : [
                0.0,
                0.0,
                0.0
            ],
            "type" : "VEC3"
        },
        {
            "bufferView" : 10,
            "componentType" : 5126,
            "count" : 60,
            "max" : [
                2.4583333333333335
            ],
            "min" : [
                0.0
            ],
            "type" : "SCALAR"
        },
        {
            "bufferView" : 11,
            "componentType" : 5126,
            "count" : 60,
            "max" : [
                0.8717942833900452,
                -1.6300696754315176e-14,
                0.48987212777137756,
                -1.4542887072366284e-07
            ],
            "min" : [
                0.8717942833900452,
                -1.6300696754315176e-14,
                0.48987212777137756,
                -1.4542887072366284e-07
            ],
            "type" : "VEC4"
        },
        {
            "bufferView" : 12,
            "componentType" : 5126,
            "count" : 60,
            "max" : [
                2.4583333333333335
            ],
            "min" : [
                0.0
            ],
            "type" : "SCALAR"
        },
        {
            "bufferView" : 13,
            "componentType" : 5126,
            "count" : 60,
            "max" : [
                1.0,
                1.0,
                1.0
            ],
            "min" : [
                1.0,
                1.0,
                1.0
            ],
            "type" : "VEC3"
        },
        {
            "bufferView" : 14,
            "componentType" : 5126,
            "count" : 60,
            "max" : [
                2.4583333333333335
            ],
            "min" : [
                0.0
            ],
            "type" : "SCALAR"
        },
        {
            "bufferView" : 15,
            "componentType" : 5126,
            "count" : 60,
            "max" : [
                -3.555476268957136e-07,
                -0.7745416164398193,
                2.1647936421231861e-07
            ],
            "min" : [
                -3.555476268957136e-07,
                -0.7745416164398193,
                2.1647936421231861e-07
            ],
            "type" : "VEC3"
        },
        {
            "bufferView" : 16,
            "componentType" : 5126,
            "count" : 60,
            "max" : [
                2.4583333333333335
            ],
            "min" : [
                0.0
            ],
            "type" : "SCALAR"
        },
        {
            "bufferView" : 17,
            "componentType" : 5126,
            "count" : 60,
            "max" : [
                0.8717942833900452,
                -1.3163732148768759e-07,
                0.48987212777137756,
                2.3426650841429364e-07
            ],
            "min" : [
                0.8717942833900452,
                -1.3163732148768759e-07,
                0.48987212777137756,
                2.3426650841429364e-07
            ],
            "type" : "VEC4"
        },
        {
            "bufferView" : 18,
            "componentType" : 5126,
            "count" : 60,
            "max" : [
                2.4583333333333335
            ],
            "min" : [
                0.0
            ],
            "type" : "SCALAR"
        },
        {
            "bufferView" : 19,
            "componentType" : 5126,
            "count" : 60,
            "max" : [
                1.0,
                1.0,
                1.0
            ],
            "min" : [
                1.0,
                1.0,
                1.0
            ],
            "type" : "VEC3"
        },
        {
            "bufferView" : 20,
            "componentType" : 5126,
            "count" : 60,
            "max" : [
                2.4583333333333335
            ],
            "min" : [
                0.0
            ],
            "type" : "SCALAR"
        },
        {
            "bufferView" : 21,
            "componentType" : 5126,
            "count" : 60,
            "max" : [
                0.0,
                0.0,
                0.0
            ],
            "min" : [
                0.0,
                0.0,
                0.0
            ],
            "type" : "VEC3"
        },
        {
            "bufferView" : 22,
            "componentType" : 5126,
            "count" : 60,
            "max" : [
                2.4583333333333335
            ],
            "min" : [
                0.0
            ],
            "type" : "SCALAR"
        },
        {
            "bufferView" : 23,
            "componentType" : 5126,
            "count" : 60,
            "max" : [
                0.8705917596817017,
                1.4958652627683477e-07,
                0.9992938041687012,
                1.0
            ],
            "min" : [
                -0.487735390663147,
                0.0,
                0.0,
                -1.4545213389283163e-07
            ],
            "type" : "VEC4"
        },
        {
            "bufferView" : 24,
            "componentType" : 5126,
            "count" : 60,
            "max" : [
                2.4583333333333335
            ],
            "min" : [
                0.0
            ],
            "type" : "SCALAR"
        },
        {
            "bufferView" : 25,
            "componentType" : 5126,
            "count" : 60,
            "max" : [
                0.9975565671920776,
                0.9975565671920776,
                0.9975565671920776
            ],
            "min" : [
                0.0,
                0.0,
                0.0
            ],
            "type" : "VEC3"
        },
        {
            "bufferView" : 26,
            "componentType" : 5126,
            "count" : 60,
            "max" : [
                2.4583333333333335
            ],
            "min" : [
                0.0
            ],
            "type" : "SCALAR"
        },
        {
            "bufferView" : 27,
            "componentType" : 5126,
            "count" : 60,
            "max" : [
                -3.331209086354647e-08,
                -0.07256859540939331,
                2.0282453050413096e-08
            ],
            "min" : [
                -3.331209086354647e-08,
                -0.07256859540939331,
                2.0282453050413096e-08
            ],
            "type" : "VEC3"
        },
        {
            "bufferView" : 28,
            "componentType" : 5126,
            "count" : 60,
            "max" : [
                2.4583333333333335
            ],
            "min" : [
                0.0
            ],
            "type" : "SCALAR"
        },
        {
            "bufferView" : 29,
            "componentType" : 5126,
            "count" : 60,
            "max" : [
                0.8717942833900452,
                -1.3163732148768759e-07,
                0.48987212777137756,
                2.3426650841429364e-07
            ],
            "min" : [
                0.8717942833900452,
                -1.3163732148768759e-07,
                0.48987212777137756,
                2.3426650841429364e-07
            ],
            "type" : "VEC4"
        },
        {
            "bufferView" : 30,
            "componentType" : 5126,
            "count" : 60,
            "max" : [
                2.4583333333333335
            ],
            "min" : [
                0.0
            ],
            "type" : "SCALAR"
        },
        {
            "bufferView" : 31,
            "componentType" : 5126,
            "count" : 60,
            "max" : [
                1.0,
                1.0,
                1.0
            ],
            "min" : [
                1.0,
                1.0,
                1.0
            ],
            "type" : "VEC3"
        }
    ],
    "animations" : [
        {
            "channels" : [
                {
                    "sampler" : 0,
                    "target" : {
                        "node" : 2,
                        "path" : "translation"
                    }
                },
                {
                    "sampler" : 1,
                    "target" : {
                        "node" : 2,
                        "path" : "rotation"
                    }
                },
                {
                    "sampler" : 2,
                    "target" : {
                        "node" : 2,
                        "path" : "scale"
                    }
                },
                {
                    "sampler" : 3,
                    "target" : {
                        "node" : 3,
                        "path" : "translation"
                    }
                },
                {
                    "sampler" : 4,
                    "target" : {
                        "node" : 3,
                        "path" : "rotation"
                    }
                },
                {
                    "sampler" : 5,
                    "target" : {
                        "node" : 3,
                        "path" : "scale"
                    }
                }
            ],
            "name" : "SpikeUp",
            "samplers" : [
                {
                    "input" : 8,
                    "interpolation" : "LINEAR",
                    "output" : 9
                },
                {
                    "input" : 10,
                    "interpolation" : "LINEAR",
                    "output" : 11
                },
                {
                    "input" : 12,
                    "interpolation" : "LINEAR",
                    "output" : 13
                },
                {
                    "input" : 14,
                    "interpolation" : "LINEAR",
                    "output" : 15
                },
                {
                    "input" : 16,
                    "interpolation" : "LINEAR",
                    "output" : 17
                },
                {
                    "input" : 18,
                    "interpolation" : "LINEAR",
                    "output" : 19
                }
            ]
        },
        {
            "channels" : [
                {
                    "sampler" : 0,
                    "target" : {
                        "node" : 2,
                        "path" : "translation"
                    }
                },
                {
                    "sampler" : 1,
                    "target" : {
                        "node" : 2,
                        "path" : "rotation"
                    }
                },
                {
                    "sampler" : 2,
                    "target" : {
                        "node" : 2,
                        "path" : "scale"
                    }
                },
                {
                    "sampler" : 3,
                    "target" : {
                        "node" : 3,
                        "path" : "translation"
                    }
                },
                {
                    "sampler" : 4,
                    "target" : {
                        "node" : 3,
                        "path" : "rotation"
                    }
                },
                {
                    "sampler" : 5,
                    "target" : {
                        "node" : 3,
                        "path" : "scale"
                    }
                }
            ],
            "name" : "Despawn",
            "samplers" : [
                {
                    "input" : 20,
                    "interpolation" : "LINEAR",
                    "output" : 21
                },
                {
                    "input" : 22,
                    "interpolation" : "LINEAR",
                    "output" : 23
                },
                {
                    "input" : 24,
                    "interpolation" : "LINEAR",
                    "output" : 25
                },
                {
                    "input" : 26,
                    "interpolation" : "LINEAR",
                    "output" : 27
                },
                {
                    "input" : 28,
                    "interpolation" : "LINEAR",
                    "output" : 29
                },
                {
                    "input" : 30,
                    "interpolation" : "LINEAR",
                    "output" : 31
                }
            ]
        }
    ],
    "asset" : {
        "generator" : "Khronos Blender glTF 2.0 exporter",
        "version" : "2.0"
    },
    "bufferViews" : [
        {
            "buffer" : 0,
            "byteLength" : 3408,
            "byteOffset" : 0,
            "target" : 34963
        },
        {
            "buffer" : 0,
            "byteLength" : 4824,
            "byteOffset" : 3408,
            "target" : 34962
        },
        {
            "buffer" : 0,
            "byteLength" : 4824,
            "byteOffset" : 8232,
            "target" : 34962
        },
        {
            "buffer" : 0,
            "byteLength" : 6432,
            "byteOffset" : 13056,
            "target" : 34962
        },
        {
            "buffer" : 0,
            "byteLength" : 3216,
            "byteOffset" : 19488,
            "target" : 34962
        },
        {
            "buffer" : 0,
            "byteLength" : 3216,
            "byteOffset" : 22704,
            "target" : 34962
        },
        {
            "buffer" : 0,
            "byteLength" : 6432,
            "byteOffset" : 25920,
            "target" : 34962
        },
        {
            "buffer" : 0,
            "byteLength" : 128,
            "byteOffset" : 32352
        },
        {
            "buffer" : 0,
            "byteLength" : 240,
            "byteOffset" : 32480
        },
        {
            "buffer" : 0,
            "byteLength" : 720,
            "byteOffset" : 32720
        },
        {
            "buffer" : 0,
            "byteLength" : 240,
            "byteOffset" : 33440
        },
        {
            "buffer" : 0,
            "byteLength" : 960,
            "byteOffset" : 33680
        },
        {
            "buffer" : 0,
            "byteLength" : 240,
            "byteOffset" : 34640
        },
        {
            "buffer" : 0,
            "byteLength" : 720,
            "byteOffset" : 34880
        },
        {
            "buffer" : 0,
            "byteLength" : 240,
            "byteOffset" : 35600
        },
        {
            "buffer" : 0,
            "byteLength" : 720,
            "byteOffset" : 35840
        },
        {
            "buffer" : 0,
            "byteLength" : 240,
            "byteOffset" : 36560
        },
        {
            "buffer" : 0,
            "byteLength" : 960,
            "byteOffset" : 36800
        },
        {
            "buffer" : 0,
            "byteLength" : 240,
            "byteOffset" : 37760
        },
        {
            "buffer" : 0,
            "byteLength" : 720,
            "byteOffset" : 38000
        },
        {
            "buffer" : 0,
            "byteLength" : 240,
            "byteOffset" : 38720
        },
        {
            "buffer" : 0,
            "byteLength" : 720,
            "byteOffset" : 38960
        },
        {
            "buffer" : 0,
            "byteLength" : 240,
            "byteOffset" : 39680
        },
        {
            "buffer" : 0,
            "byteLength" : 960,
            "byteOffset" : 39920
        },
        {
            "buffer" : 0,
            "byteLength" : 240,
            "byteOffset" : 40880
        },
        {
            "buffer" : 0,
            "byteLength" : 720,
            "byteOffset" : 41120
        },
        {
            "buffer" : 0,
            "byteLength" : 240,
            "byteOffset" : 41840
        },
        {
            "buffer" : 0,
            "byteLength" : 720,
            "byteOffset" : 42080
        },
        {
            "buffer" : 0,
            "byteLength" : 240,
            "byteOffset" : 42800
        },
        {
            "buffer" : 0,
            "byteLength" : 960,
            "byteOffset" : 43040
        },
        {
            "buffer" : 0,
            "byteLength" : 240,
            "byteOffset" : 44000
        },
        {
            "buffer" : 0,
            "byteLength" : 720,
            "byteOffset" : 44240
        }
    ],
    "buffers" : [
        {
            "byteLength" : 44960,
            "uri" : "SpikeTrap.bin"
        }
    ],
    "images" : [
        {
            "mimeType" : "image/png",
            "name" : "SpikeTrapTexture",
            "uri" : "data:image/png;base64,"
        }
    ],
    "materials" : [
        {
            "name" : "SpikeTrap",
            "pbrMetallicRoughness" : {
                "baseColorFactor" : [
                    0.800000011920929,
                    0.800000011920929,
                    0.800000011920929,
                    1.0
                ],
                "baseColorTexture" : {
                    "index" : 0
                },
                "metallicFactor" : 0.0
            }
        }
    ],
    "meshes" : [
        {
            "name" : "SpikeTrap",
            "primitives" : [
                {
                    "attributes" : {
                        "JOINTS_0" : 5,
                        "NORMAL" : 2,
                        "POSITION" : 1,
                        "TANGENT" : 3,
                        "TEXCOORD_0" : 4,
                        "WEIGHTS_0" : 6
                    },
                    "indices" : 0,
                    "material" : 0
                }
            ]
        }
    ],
    "nodes" : [
        {
            "mesh" : 0,
            "name" : "SpikeTrap",
            "skin" : 0
        },
        {
            "children" : [
                0,
                2
            ],
            "name" : "SpikeTrapRig"
        },
        {
            "children" : [
                3
            ],
            "name" : "SpikeTrapRig_Body",
            "rotation" : [
                0.8717942833900452,
                -1.6300696754315176e-14,
                0.48987212777137756,
                -1.4542887072366284e-07
            ]
        },
        {
            "name" : "SpikeTrapRig_Bone",
            "rotation" : [
                0.8717942833900452,
                -1.3163732148768759e-07,
                0.48987212777137756,
                2.3426650841429364e-07
            ],
            "translation" : [
                -3.331209086354647e-08,
                -0.07256859540939331,
                2.0282453050413096e-08
            ]
        }
    ],
    "samplers" : [
        {}
    ],
    "scene" : 0,
    "scenes" : [
        {
            "name" : "Scene",
            "nodes" : [
                1
            ]
        }
    ],
    "skins" : [
        {
            "inverseBindMatrices" : 7,
            "joints" : [
                2,
                3
            ],
            "skeleton" : 1
        }
    ],
    "textures" : [
        {
            "sampler" : 0,
            "source" : 0
        }
    ]
}
