{
    "accessors" : [
        {
            "bufferView" : 0,
            "componentType" : 5121,
            "count" : 369,
            "max" : [
                83
            ],
            "min" : [
                0
            ],
            "type" : "SCALAR"
        },
        {
            "bufferView" : 1,
            "componentType" : 5126,
            "count" : 84,
            "max" : [
                1.069671869277954,
                1.5131809711456299,
                0.358470618724823
            ],
            "min" : [
                -1.1236376762390137,
                0.0,
                -1.0416897535324097
            ],
            "type" : "VEC3"
        },
        {
            "bufferView" : 2,
            "componentType" : 5126,
            "count" : 84,
            "max" : [
                0.9941709637641907,
                0.9595019221305847,
                0.8716696500778198
            ],
            "min" : [
                -0.9269387125968933,
                0.06640827655792236,
                -0.9941099286079407
            ],
            "type" : "VEC3"
        },
        {
            "bufferView" : 3,
            "componentType" : 5126,
            "count" : 84,
            "max" : [
                0.5888769030570984,
                0.8313214182853699,
                0.6845963597297668,
                1.0
            ],
            "min" : [
                -0.9792910814285278,
                -0.9855393171310425,
                -0.8910810947418213,
                1.0
            ],
            "type" : "VEC4"
        },
        {
            "bufferView" : 4,
            "componentType" : 5126,
            "count" : 84,
            "max" : [
                0.9811468124389648,
                0.9863287173211575
            ],
            "min" : [
                0.02640918642282486,
                0.012880444526672363
            ],
            "type" : "VEC2"
        }
    ],
    "asset" : {
        "generator" : "Khronos Blender glTF 2.0 exporter",
        "version" : "2.0"
    },
    "bufferViews" : [
        {
            "buffer" : 0,
            "byteLength" : 369,
            "byteOffset" : 0,
            "target" : 34963
        },
        {
            "buffer" : 0,
            "byteLength" : 1008,
            "byteOffset" : 372,
            "target" : 34962
        },
        {
            "buffer" : 0,
            "byteLength" : 1008,
            "byteOffset" : 1380,
            "target" : 34962
        },
        {
            "buffer" : 0,
            "byteLength" : 1344,
            "byteOffset" : 2388,
            "target" : 34962
        },
        {
            "buffer" : 0,
            "byteLength" : 672,
            "byteOffset" : 3732,
            "target" : 34962
        }
    ],
    "buffers" : [
        {
            "byteLength" : 4404,
            "uri" : "ScoreRock.bin"
        }
    ],
    "images" : [
        {
            "mimeType" : "image/png",
            "name" : "ScoreRockTexture",
            "uri" : "data:image/png;base64,"
        }
    ],
    "materials" : [
        {
            "name" : "ScoreRock",
            "pbrMetallicRoughness" : {
                "baseColorFactor" : [
                    0.800000011920929,
                    0.800000011920929,
                    0.800000011920929,
                    1.0
                ],
                "baseColorTexture" : {
                    "index" : 0
                },
                "metallicFactor" : 0.0
            }
        }
    ],
    "meshes" : [
        {
            "name" : "ScoreRock",
            "primitives" : [
                {
                    "attributes" : {
                        "NORMAL" : 2,
                        "POSITION" : 1,
                        "TANGENT" : 3,
                        "TEXCOORD_0" : 4
                    },
                    "indices" : 0,
                    "material" : 0
                }
            ]
        }
    ],
    "nodes" : [
        {
            "mesh" : 0,
            "name" : "ScoreRock"
        }
    ],
    "samplers" : [
        {}
    ],
    "scene" : 0,
    "scenes" : [
        {
            "name" : "Scene",
            "nodes" : [
                0
            ]
        }
    ],
    "textures" : [
        {
            "sampler" : 0,
            "source" : 0
        }
    ]
}
