{
    "accessors" : [
        {
            "bufferView" : 0,
            "componentType" : 5123,
            "count" : 3012,
            "max" : [
                883
            ],
            "min" : [
                0
            ],
            "type" : "SCALAR"
        },
        {
            "bufferView" : 1,
            "componentType" : 5126,
            "count" : 884,
            "max" : [
                1.2449569702148438,
                2.137657403945923,
                0.14168617129325867
            ],
            "min" : [
                -1.2449569702148438,
                0.0,
                -1.1225926876068115
            ],
            "type" : "VEC3"
        },
        {
            "bufferView" : 2,
            "componentType" : 5126,
            "count" : 884,
            "max" : [
                0.9367961883544922,
                0.9353007674217224,
                0.9091158509254456
            ],
            "min" : [
                -0.9367961883544922,
                -0.9384746551513672,
                -0.9091158509254456
            ],
            "type" : "VEC3"
        },
        {
            "bufferView" : 3,
            "componentType" : 5126,
            "count" : 884,
            "max" : [
                0.9980244040489197,
                0.9971580505371094,
                0.9347354173660278,
                1.0
            ],
            "min" : [
                -0.9980244636535645,
                -0.9947225451469421,
                -0.93075031042099,
                -1.0
            ],
            "type" : "VEC4"
        },
        {
            "bufferView" : 4,
            "componentType" : 5126,
            "count" : 884,
            "max" : [
                0.9637103080749512,
                0.9907505540177226
            ],
            "min" : [
                0.011210143566131592,
                0.011658787727355957
            ],
            "type" : "VEC2"
        }
    ],
    "asset" : {
        "generator" : "Khronos Blender glTF 2.0 exporter",
        "version" : "2.0"
    },
    "bufferViews" : [
        {
            "buffer" : 0,
            "byteLength" : 6024,
            "byteOffset" : 0,
            "target" : 34963
        },
        {
            "buffer" : 0,
            "byteLength" : 10608,
            "byteOffset" : 6024,
            "target" : 34962
        },
        {
            "buffer" : 0,
            "byteLength" : 10608,
            "byteOffset" : 16632,
            "target" : 34962
        },
        {
            "buffer" : 0,
            "byteLength" : 14144,
            "byteOffset" : 27240,
            "target" : 34962
        },
        {
            "buffer" : 0,
            "byteLength" : 7072,
            "byteOffset" : 41384,
            "target" : 34962
        }
    ],
    "buffers" : [
        {
            "byteLength" : 48456,
            "uri" : "StoneArchway.bin"
        }
    ],
    "images" : [
        {
            "mimeType" : "image/png",
            "name" : "StoneArchwayTexture",
            "uri" : "data:image/png;base64,"
        }
    ],
    "materials" : [
        {
            "name" : "StoneArchway",
            "pbrMetallicRoughness" : {
                "baseColorFactor" : [
                    0.800000011920929,
                    0.800000011920929,
                    0.800000011920929,
                    1.0
                ],
                "baseColorTexture" : {
                    "index" : 0
                },
                "metallicFactor" : 0.0
            }
        }
    ],
    "meshes" : [
        {
            "name" : "StoneArchway",
            "primitives" : [
                {
                    "attributes" : {
                        "NORMAL" : 2,
                        "POSITION" : 1,
                        "TANGENT" : 3,
                        "TEXCOORD_0" : 4
                    },
                    "indices" : 0,
                    "material" : 0
                }
            ]
        }
    ],
    "nodes" : [
        {
            "mesh" : 0,
            "name" : "StoneArchway"
        }
    ],
    "samplers" : [
        {}
    ],
    "scene" : 0,
    "scenes" : [
        {
            "name" : "Scene",
            "nodes" : [
                0
            ]
        }
    ],
    "textures" : [
        {
            "sampler" : 0,
            "source" : 0
        }
    ]
}
